# xmcd
#
# Track frame offsets: 
#        150
#        11697
#        24087
#        34140
#        46277
#        57467
#        70107
#        81700
#        91605
#        102847
#        116555
#        129025
#        141342
#        152530
#
# Disc length: 2166 seconds
#
# Revision: 4
# Processed by: cddbd v1.5.2PL0 Copyright (c) Steve Scherf et al.
# Submitted via: ExactAudioCopyFreeDBPlugin 1.0
#
DISCID=ac08740e
DTITLE=John Lee Hooker - Boom Boom and Blues
DYEAR=1994
DGENRE=Blues
TTITLE0=Boom Boom
TTITLE1=Whiskey and Women
TTITLE2=Dimples
TTITLE3=Everybody Rockin'
TTITLE4=Good Rockin' Mamma
TTITLE5=Frisco
TTITLE6=Boogie Chilon
TTITLE7=I Wanna Walk
TTITLE8=Let's Make It
TTITLE9=Time Is Marchin'
TTITLE10=Trouble Blues
TTITLE11=You Can Lead Me Baby
TTITLE12=No Shoes
TTITLE13=Want Ad Blues
EXTD=
EXTT0=
EXTT1=
EXTT2=
EXTT3=
EXTT4=
EXTT5=
EXTT6=
EXTT7=
EXTT8=
EXTT9=
EXTT10=
EXTT11=
EXTT12=
EXTT13=
PLAYORDER=
